HIERARCHY
ROOT Hips
{
  OFFSET 5.84602e-005 68.8428 3.50346
  CHANNELS 6 Xposition Yposition Zposition Zrotation Xrotation Yrotation
  JOINT Spine
  {
    OFFSET 0 8.597 -4.6522
    CHANNELS 3 Zrotation Xrotation Yrotation
    JOINT Spine1
    {
      OFFSET 0 7.8454 0.4098
      CHANNELS 3 Zrotation Xrotation Yrotation
      JOINT Spine2
      {
        OFFSET 0 9.7078 -2.1609
        CHANNELS 3 Zrotation Xrotation Yrotation
        JOINT Neck
        {
          OFFSET 0 21.8761 -0.4549
          CHANNELS 3 Zrotation Xrotation Yrotation
          JOINT Head
          {
            OFFSET 0 12.3537 3.3602
            CHANNELS 3 Zrotation Xrotation Yrotation
            End Site
            {
              OFFSET 0.0001 18.9506 0.5657
            }
          }
        }
        JOINT LeftShoulder
        {
          OFFSET 2.2086 21.1115 7.2329
          CHANNELS 3 Zrotation Xrotation Yrotation
          JOINT LeftArm
          {
            OFFSET 13.1193 3.0282 -4.8998
            CHANNELS 3 Zrotation Xrotation Yrotation
            JOINT LeftForeArm
            {
              OFFSET 27.4081 -0.0973053 -0.2375
              CHANNELS 3 Zrotation Xrotation Yrotation
              JOINT LeftHand
              {
                OFFSET 22.8641 0.0662994 -0.1369
                CHANNELS 3 Zrotation Xrotation Yrotation
                JOINT LeftHandIndex1
                {
                  OFFSET 8.8614 0.775009 2.4612
                  CHANNELS 3 Zrotation Xrotation Yrotation
                  JOINT LeftHandIndex2
                  {
                    OFFSET 3.3146 -0.808304 0.5841
                    CHANNELS 3 Zrotation Xrotation Yrotation
                    JOINT LeftHandIndex3
                    {
                      OFFSET 2.2628 -0.552002 0.3989
                      CHANNELS 3 Zrotation Xrotation Yrotation
                      End Site
                      {
                        OFFSET 1.6102 -0.4807 0.2612
                      }
                    }
                  }
                }
                JOINT LeftHandMiddle1
                {
                  OFFSET 8.9937 0.895004 0.2143
                  CHANNELS 3 Zrotation Xrotation Yrotation
                  JOINT LeftHandMiddle2
                  {
                    OFFSET 4.0984 0.0113983 -0.0242
                    CHANNELS 3 Zrotation Xrotation Yrotation
                    JOINT LeftHandMiddle3
                    {
                      OFFSET 2.2716 0.00689697 -0.0138001
                      CHANNELS 3 Zrotation Xrotation Yrotation
                      End Site
                      {
                        OFFSET 2.0404 -0.1441 0.0027
                      }
                    }
                  }
                }
                JOINT LeftHandRing1
                {
                  OFFSET 8.5234 0.597198 -2.0164
                  CHANNELS 3 Zrotation Xrotation Yrotation
                  JOINT LeftHandRing2
                  {
                    OFFSET 3.7188 -0.188293 -0.2328
                    CHANNELS 3 Zrotation Xrotation Yrotation
                    JOINT LeftHandRing3
                    {
                      OFFSET 2.1191 -0.106598 -0.1332
                      CHANNELS 3 Zrotation Xrotation Yrotation
                      End Site
                      {
                        OFFSET 1.8737 -0.2304 -0.0886
                      }
                    }
                  }
                }
                JOINT LeftHandPinky1
                {
                  OFFSET 7.9094 -0.601089 -3.4825
                  CHANNELS 3 Zrotation Xrotation Yrotation
                  JOINT LeftHandPinky2
                  {
                    OFFSET 2.2874 -0.477005 -0.6314
                    CHANNELS 3 Zrotation Xrotation Yrotation
                    JOINT LeftHandPinky3
                    {
                      OFFSET 1.6774 -0.349396 -0.4633
                      CHANNELS 3 Zrotation Xrotation Yrotation
                      End Site
                      {
                        OFFSET 1.4888 -0.4091 -0.3416
                      }
                    }
                  }
                }
                JOINT LeftHandThumb1
                {
                  OFFSET 1.833 -1.3875 1.3896
                  CHANNELS 3 Zrotation Xrotation Yrotation
                  JOINT LeftHandThumb2
                  {
                    OFFSET 3.4129 -1.121 2.5732
                    CHANNELS 3 Zrotation Xrotation Yrotation
                    JOINT LeftHandThumb3
                    {
                      OFFSET 2.2474 -0.804199 1.6192
                      CHANNELS 3 Zrotation Xrotation Yrotation
                      End Site
                      {
                        OFFSET 1.6527 -0.5689 1.1317
                      }
                    }
                  }
                }
              }
            }
          }
        }
        JOINT RightShoulder
        {
          OFFSET -2.2086 21.1115 7.2329
          CHANNELS 3 Zrotation Xrotation Yrotation
          JOINT RightArm
          {
            OFFSET -13.1216 3.0287 -4.9007
            CHANNELS 3 Zrotation Xrotation Yrotation
            JOINT RightForeArm
            {
              OFFSET -27.4081 -0.0973053 -0.2375
              CHANNELS 3 Zrotation Xrotation Yrotation
              JOINT RightHand
              {
                OFFSET -22.8641 0.0664063 -0.1369
                CHANNELS 3 Zrotation Xrotation Yrotation
                JOINT RightHandIndex1
                {
                  OFFSET -8.8614 0.774994 2.4612
                  CHANNELS 3 Zrotation Xrotation Yrotation
                  JOINT RightHandIndex2
                  {
                    OFFSET -3.3146 -0.808304 0.5841
                    CHANNELS 3 Zrotation Xrotation Yrotation
                    JOINT RightHandIndex3
                    {
                      OFFSET -2.2628 -0.552002 0.3989
                      CHANNELS 3 Zrotation Xrotation Yrotation
                      End Site
                      {
                        OFFSET -1.6102 -0.4807 0.2612
                      }
                    }
                  }
                }
                JOINT RightHandMiddle1
                {
                  OFFSET -8.9937 0.894989 0.2143
                  CHANNELS 3 Zrotation Xrotation Yrotation
                  JOINT RightHandMiddle2
                  {
                    OFFSET -4.0984 0.0113983 -0.0242
                    CHANNELS 3 Zrotation Xrotation Yrotation
                    JOINT RightHandMiddle3
                    {
                      OFFSET -2.2716 0.00691223 -0.0138001
                      CHANNELS 3 Zrotation Xrotation Yrotation
                      End Site
                      {
                        OFFSET -2.0404 -0.1441 0.0027
                      }
                    }
                  }
                }
                JOINT RightHandRing1
                {
                  OFFSET -8.5234 0.597198 -2.0164
                  CHANNELS 3 Zrotation Xrotation Yrotation
                  JOINT RightHandRing2
                  {
                    OFFSET -3.7188 -0.188309 -0.2328
                    CHANNELS 3 Zrotation Xrotation Yrotation
                    JOINT RightHandRing3
                    {
                      OFFSET -2.1191 -0.106598 -0.1332
                      CHANNELS 3 Zrotation Xrotation Yrotation
                      End Site
                      {
                        OFFSET -1.8737 -0.2304 -0.0886
                      }
                    }
                  }
                }
                JOINT RightHandPinky1
                {
                  OFFSET -7.9094 -0.601105 -3.4825
                  CHANNELS 3 Zrotation Xrotation Yrotation
                  JOINT RightHandPinky2
                  {
                    OFFSET -2.2874 -0.477005 -0.6314
                    CHANNELS 3 Zrotation Xrotation Yrotation
                    JOINT RightHandPinky3
                    {
                      OFFSET -1.6774 -0.349396 -0.4633
                      CHANNELS 3 Zrotation Xrotation Yrotation
                      End Site
                      {
                        OFFSET -1.4888 -0.4091 -0.3416
                      }
                    }
                  }
                }
                JOINT RightHandThumb1
                {
                  OFFSET -1.833 -1.38751 1.3896
                  CHANNELS 3 Zrotation Xrotation Yrotation
                  JOINT RightHandThumb2
                  {
                    OFFSET -3.41299 -1.12099 2.5732
                    CHANNELS 3 Zrotation Xrotation Yrotation
                    JOINT RightHandThumb3
                    {
                      OFFSET -2.24741 -0.804108 1.6192
                      CHANNELS 3 Zrotation Xrotation Yrotation
                      End Site
                      {
                        OFFSET -1.6527 -0.5689 1.1317
                      }
                    }
                  }
                }
              }
            }
          }
        }
      }
    }
  }
  JOINT RightUpLeg
  {
    OFFSET -9.1966 3.8861 -0.7581
    CHANNELS 3 Zrotation Xrotation Yrotation
    JOINT RightLeg
    {
      OFFSET -0.7359 -41.0265 0
      CHANNELS 3 Zrotation Xrotation Yrotation
      JOINT RightFoot
      {
        OFFSET 0 -40.2855 0
        CHANNELS 3 Zrotation Xrotation Yrotation
        JOINT RightToeBase
        {
          OFFSET 0 -5.6122 11.7359
          CHANNELS 3 Zrotation Xrotation Yrotation
          End Site
          {
            OFFSET 0 0 7.8731
          }
        }
      }
    }
  }
  JOINT LeftUpLeg
  {
    OFFSET 9.1965 3.8864 -0.7581
    CHANNELS 3 Zrotation Xrotation Yrotation
    JOINT LeftLeg
    {
      OFFSET 0.7359 -41.0268 0
      CHANNELS 3 Zrotation Xrotation Yrotation
      JOINT LeftFoot
      {
        OFFSET 0 -40.2855 0
        CHANNELS 3 Zrotation Xrotation Yrotation
        JOINT LeftToeBase
        {
          OFFSET 0 -5.6122 11.7359
          CHANNELS 3 Zrotation Xrotation Yrotation
          End Site
          {
            OFFSET 0 0 7.8731
          }
        }
      }
    }
  }
}
MOTION
Frames:	7
Frame Time:	0.0333333
5.84602e-005 68.8428 3.50346 0 0 -0 0 0 -0 0 0 -0 0 0 -0 0 0 -0 0 0 -0 0 0 -0 0 0 -0 0 0 -0 0 0 -0 0 0 -0 0 0 -0 0 0 -0 0 0 -0 -0.0146107 -8.87603e-005 -2.63497e-007 2.99804e-018 -2.42657e-020 -1.42182e-022 0 0 -0 -0.0187562 -0.001176 5.858e-005 5.06224e-018 3.88251e-019 1.21329e-020 0 0 -0 -0.012269 -0.00324817 0.000675346 -1.74678e-018 3.88251e-019 -0 0 0 -0 0 0 -0 0 0 -0 0 0 -0 0 0 -0 0 0 -0 0 0 -0 0 0 -0 0 0 -0 0 0 -0 0 0 -0 0.0149955 -9.10982e-005 2.64101e-007 -9.69331e-018 1.21329e-020 -4.7394e-023 0 0 -0 0.0189956 -0.00119102 -5.96516e-005 -5.41541e-019 0 2.42657e-020 0 0 -0 0.0122698 -0.00324857 -0.000673756 -2.00796e-019 0 -1.94126e-019 0 0 -0 0 0 -0 0 0 -0 3.39842 1.33031 -0.0637918 -5.65207e-008 0.834868 -0.000436188 -3.39935 -2.16518 -0.0642563 -8.89002e-024 -1.18485e-023 -1.48106e-024 -3.39844 1.35642 0.0640283 -3.18788e-007 0.782166 -0.000588827 3.39931 -2.13858 0.0634662 1.1399e-023 0 -0 
-29.4609 37.1665 -3.49843 180 -64.4891 180 -0.0568685 8.11648 -0.0753909 -0.104419 16.233 -0.144763 -0.104419 16.233 -0.144763 -3.66822e-006 13.2997 1.88229e-006 9.93602e-009 6.62861 6.18946e-010 1.06557 0.363345 3.94851 -39.6753 7.88111 12.2978 4.7747 25.5933 -19.2035 -13.4461 29.8308 19.3742 -4.27387e-015 -1.59028e-015 -0 1.71457e-006 3.03767e-008 -1.7585e-007 -5.86415e-015 -5.96354e-016 3.18055e-015 -4.27387e-015 -1.59028e-015 -0 -0.0146457 -8.99404e-005 -1.43341e-006 -2.98177e-015 4.77083e-015 -0 -4.27387e-015 -1.59028e-015 -0 -0.0187608 -0.00117643 6.27914e-005 2.59024e-007 -1.41221e-007 -3.12782e-007 -4.27387e-015 -1.59028e-015 -0 -0.0122873 -0.0032523 0.000680795 9.93923e-016 -1.98785e-016 -0 -4.27387e-015 -1.59028e-015 -0 1.71457e-006 3.03767e-008 -1.7585e-007 -5.86415e-015 -5.96354e-016 3.18055e-015 -1.06619 0.3628 -3.95157 39.6698 7.88167 -12.2975 -4.78467 25.5908 19.2091 13.4446 29.8307 -19.3749 -2.88238e-015 -6.95746e-016 3.18055e-015 -1.2921e-015 3.08116e-015 3.18055e-015 9.93923e-016 1.98785e-016 -0 -2.88238e-015 -6.95746e-016 3.18055e-015 0.0150102 -9.01152e-005 3.79299e-006 2.98177e-015 -7.95139e-016 -0 -2.88238e-015 -6.95746e-016 3.18055e-015 0.0189755 -0.001189 -5.89547e-005 2.88238e-015 3.18055e-015 3.18055e-015 -2.88238e-015 -6.95746e-016 3.18055e-015 0.012267 -0.00324713 -0.000676608 -3.08116e-015 -1.39149e-015 6.36111e-015 -2.88238e-015 -6.95746e-016 3.18055e-015 -1.2921e-015 3.08116e-015 3.18055e-015 9.93923e-016 1.98785e-016 -0 -146.438 -70.3866 -159.069 -10.2792 30.7929 9.41198 -7.0783 10.1152 0.0920765 -3.39086e-007 7.3581e-008 1.77579e-008 122.041 -76.6655 133.695 7.04916 12.087 -0.849062 5.01772 18.1361 -3.60816 -5.99952e-008 -4.19007e-007 5.50373e-008 
-42.704 20.3323 -13.9716 180 -12.2851 180 -0.0854724 11.8498 -0.10686 -0.152863 23.6998 -0.201907 -0.152863 23.6998 -0.201907 -8.30398e-007 19.4467 5.92589e-007 -2.8158e-008 9.79465 -2.07954e-008 1.82342 0.417572 5.59934 -58.8488 11.0848 18.0801 13.381 34.7799 -31.2561 -27.7281 40.3173 32.726 -0 0 9.54166e-015 3.83321e-007 1.84036e-007 -2.82142e-008 1.19271e-015 4.77083e-015 1.27222e-014 -0 0 9.54166e-015 -0.0146132 -8.90799e-005 -2.55628e-006 3.97569e-016 -3.97569e-016 1.27222e-014 -0 0 9.54166e-015 -0.018755 -0.00117521 4.82169e-005 4.27697e-008 -1.70698e-007 2.37821e-007 -0 0 9.54166e-015 -0.0122884 -0.00325377 0.000668729 7.95139e-016 2.78299e-015 -3.18055e-015 -0 0 9.54166e-015 3.83321e-007 1.84036e-007 -2.82142e-008 1.19271e-015 4.77083e-015 1.27222e-014 -1.83389 0.420287 -5.6014 58.8544 11.079 -18.0914 -13.3534 34.7902 31.2255 27.7237 40.318 -32.734 1.59028e-015 7.95139e-016 1.59028e-014 1.98785e-015 3.97569e-016 1.59028e-014 -6.17947e-031 2.78299e-015 1.27222e-014 1.59028e-015 7.95139e-016 1.59028e-014 0.0150004 -8.96142e-005 1.43986e-006 -2.38542e-015 -3.97569e-016 -9.54166e-015 1.59028e-015 7.95139e-016 1.59028e-014 0.0189864 -0.00118977 -6.27108e-005 1.59028e-015 -3.97569e-015 -0 1.59028e-015 7.95139e-016 1.59028e-014 0.0122987 -0.0032549 -0.000675124 -1.59028e-015 2.78299e-015 3.18055e-015 1.59028e-015 7.95139e-016 1.59028e-014 1.98785e-015 3.97569e-016 1.59028e-014 -6.17947e-031 2.78299e-015 1.27222e-014 -156.716 -24.3795 -166.111 -18.5827 40.7483 17.0064 -8.69747 16.5482 -1.02354 -4.49331e-006 -6.78294e-007 -4.37932e-007 151.91 -36.278 159.592 10.4079 14.8586 -1.11198 6.94849 27.6822 -5.85373 4.57775e-006 -6.30392e-007 2.89278e-007 
-39.7617 24.605 -11.5092 180 -23.3878 180 -0.0812144 11.2005 -0.0991705 -0.146549 22.401 -0.187329 -0.146549 22.401 -0.18733 -5.33964e-006 18.4429 2.71654e-006 -2.10714e-009 9.49813 -5.17456e-009 2.30708 0.164962 4.95269 -54.9952 10.2881 16.9349 10.9397 33.0228 -28.8997 -24.0725 37.9508 29.5095 -1.11762e-006 4.31332e-007 1.45387e-007 1.39149e-015 -3.57812e-015 1.90833e-014 -1.8921e-006 8.81855e-008 1.98152e-007 -1.11762e-006 4.31332e-007 1.45387e-007 -0.0146046 -8.9338e-005 -2.34246e-006 -1.89209e-006 8.81603e-008 1.98165e-007 -1.11762e-006 4.31332e-007 1.45387e-007 -0.0187536 -0.00117509 6.32255e-005 -1.89208e-006 8.81555e-008 1.98186e-007 -1.11762e-006 4.31332e-007 1.45387e-007 -0.0122686 -0.00324858 0.000680984 -1.89208e-006 8.81793e-008 1.98214e-007 -1.11762e-006 4.31332e-007 1.45387e-007 1.39149e-015 -3.57812e-015 1.90833e-014 -1.8921e-006 8.81855e-008 1.98152e-007 -2.33668 0.174741 -4.94969 55.0285 10.2693 -16.9699 -10.8283 33.0601 28.7916 24.0618 37.9543 -29.5306 2.11204e-007 1.46566e-007 2.39384e-006 -1.11566e-006 -4.31022e-007 1.58879e-007 -3.18055e-015 -1.98785e-015 -6.36111e-015 2.11204e-007 1.46566e-007 2.39384e-006 0.0149958 -9.12381e-005 3.49224e-006 2.13038e-007 1.46868e-007 2.39382e-006 2.11204e-007 1.46566e-007 2.39384e-006 0.0189996 -0.00119247 -6.07097e-005 1.98785e-016 5.56597e-015 9.54166e-015 2.11204e-007 1.46566e-007 2.39384e-006 0.0122843 -0.00325184 -0.000682929 7.95139e-016 3.37934e-015 6.36111e-015 2.11204e-007 1.46566e-007 2.39384e-006 -1.11566e-006 -4.31022e-007 1.58879e-007 -3.18055e-015 -1.98785e-015 -6.36111e-015 -155.26 -35.2539 -166.207 -16.0882 37.8713 13.918 -8.81421 15.398 0.481343 -4.37251e-007 -3.26642e-006 3.08083e-007 149.246 -46.5189 158.604 9.59357 12.8015 -1.02645 6.56918 26.2445 -5.57893 -2.07281e-006 6.58945e-007 1.31545e-006 
-39.7611 24.6143 -11.6149 180 -22.9801 180 -0.0830746 11.3481 -0.0985385 -0.150345 22.6963 -0.185542 -0.150345 22.6963 -0.185542 -3.18787e-006 18.7389 1.59524e-006 8.20158e-008 9.83123 9.08629e-009 2.83999 -0.034595 4.72578 -55.3762 10.1976 17.0599 10.8446 33.0705 -29.3747 -24.1267 37.695 29.6209 -3.37934e-015 -3.37934e-015 6.36111e-015 -5.1684e-015 -2.38542e-015 -0 -1.59028e-015 7.95139e-016 -0 -3.37934e-015 -3.37934e-015 6.36111e-015 -0.0146097 -8.86446e-005 -6.91597e-006 1.19271e-015 -2.98177e-015 -0 -3.37934e-015 -3.37934e-015 6.36111e-015 -0.0187642 -0.00117678 5.75118e-005 1.59028e-015 1.98785e-015 -3.18055e-015 -3.37934e-015 -3.37934e-015 6.36111e-015 -0.0122703 -0.00324693 0.000676295 -1.19271e-015 -1.98785e-015 -3.18055e-015 -3.37934e-015 -3.37934e-015 6.36111e-015 -5.1684e-015 -2.38542e-015 -0 -1.59028e-015 7.95139e-016 -0 -2.88707 -0.0185678 -4.71844 55.434 10.1666 -17.1162 -10.6572 33.1334 29.1963 24.1104 37.7007 -29.6543 1.11621e-006 4.29635e-007 -1.58853e-007 1.11621e-006 4.29635e-007 -1.58853e-007 1.11621e-006 4.29635e-007 -1.58853e-007 1.11621e-006 4.29635e-007 -1.58853e-007 0.014973 -9.01792e-005 -5.16153e-006 1.11621e-006 4.29614e-007 -1.5891e-007 1.11621e-006 4.29635e-007 -1.58853e-007 0.0189967 -0.00119023 -6.21126e-005 1.1162e-006 4.2961e-007 -1.58936e-007 1.11621e-006 4.29635e-007 -1.58853e-007 0.0122988 -0.00325473 -0.000680232 1.1162e-006 4.29626e-007 -1.5893e-007 1.11621e-006 4.29635e-007 -1.58853e-007 1.11621e-006 4.29635e-007 -1.58853e-007 1.11621e-006 4.29635e-007 -1.58853e-007 -155.121 -35.6002 -166.145 -16.0884 37.8717 13.919 -8.88691 15.3402 0.635237 2.78802e-006 9.55236e-007 -1.64702e-006 149.196 -46.8387 158.586 9.59416 12.8173 -1.02976 6.59934 26.1453 -5.74481 -1.38147e-006 4.36967e-007 8.78911e-007 
-39.7604 24.6232 -11.7206 180 -22.5723 180 -0.0849404 11.4959 -0.0978972 -0.154166 22.9919 -0.18372 -0.154166 22.9919 -0.183719 -4.59131e-007 19.0348 -1.48846e-007 -6.9275e-008 10.1644 1.16451e-007 3.37246 -0.236344 4.5006 -55.7569 10.1062 17.1842 10.7498 33.1189 -29.85 -24.18 37.439 29.7318 -1.98785e-016 4.57205e-015 -1.27222e-014 -1.19271e-015 0 -0 -2.98177e-015 3.37934e-015 -6.36111e-015 -1.98785e-016 4.57205e-015 -1.27222e-014 -0.0146086 -8.90831e-005 -3.17819e-008 1.98785e-015 -5.56597e-015 -3.18055e-015 -1.98785e-016 4.57205e-015 -1.27222e-014 -0.0187585 -0.0011755 6.20596e-005 -1.19271e-015 3.18055e-015 -9.54166e-015 -1.98785e-016 4.57205e-015 -1.27222e-014 -0.0122686 -0.00324861 0.000673805 3.97569e-015 0 -0 -1.98785e-016 4.57205e-015 -1.27222e-014 -1.19271e-015 0 -0 -2.98177e-015 3.37934e-015 -6.36111e-015 -3.43705 -0.214185 -4.48891 55.8393 10.0629 -17.2618 -10.4864 33.2078 29.6013 24.1583 37.447 -29.7774 -9.93923e-016 -1.78906e-015 -9.54166e-015 1.11677e-006 4.28236e-007 -1.58802e-007 -2.78299e-015 5.96354e-016 6.36111e-015 -9.93923e-016 -1.78906e-015 -9.54166e-015 0.0149932 -9.11647e-005 4.41185e-006 2.78299e-015 2.78299e-015 3.18055e-015 -9.93923e-016 -1.78906e-015 -9.54166e-015 0.0190209 -0.00119217 -5.62509e-005 -8.34753e-007 1.89961e-007 -3.41486e-006 -9.93923e-016 -1.78906e-015 -9.54166e-015 0.0122862 -0.00325195 -0.000680296 2.78299e-015 1.59028e-015 -0 -9.93923e-016 -1.78906e-015 -9.54166e-015 1.11677e-006 4.28236e-007 -1.58802e-007 -2.78299e-015 5.96354e-016 6.36111e-015 -154.982 -35.9464 -166.081 -16.0886 37.8721 13.9201 -8.95944 15.2823 0.789023 2.54083e-007 -9.90891e-007 3.61204e-006 149.147 -47.1586 158.568 9.59476 12.833 -1.03308 6.62917 26.046 -5.91051 -4.52384e-006 4.51739e-007 -1.0004e-006 
-39.7598 24.6317 -11.8262 180 -22.1643 180 -0.086813 11.6438 -0.0972461 -0.158013 23.2877 -0.181863 -0.158013 23.2877 -0.181863 8.29003e-008 19.331 5.8212e-007 -5.16279e-008 10.4977 -1.51038e-007 3.90444 -0.44034 4.27716 -56.1374 10.014 17.308 10.6554 33.1679 -30.3257 -24.2325 37.1829 29.842 8.01444e-007 1.06607e-007 2.40698e-006 -1.01764e-006 2.54635e-007 -5.50047e-006 -3.17974e-007 5.33934e-007 2.55134e-006 8.01444e-007 1.06607e-007 2.40698e-006 -0.0146081 -8.87647e-005 -5.34169e-006 -3.16195e-007 5.33619e-007 2.5514e-006 8.01444e-007 1.06607e-007 2.40698e-006 -0.0187554 -0.00117501 5.47359e-005 -3.15666e-007 5.33659e-007 2.55142e-006 8.01444e-007 1.06607e-007 2.40698e-006 -0.0122713 -0.00324882 0.000671854 -1.29911e-007 4.1175e-007 3.18386e-006 8.01444e-007 1.06607e-007 2.40698e-006 -1.01764e-006 2.54635e-007 -5.50047e-006 -3.17974e-007 5.33934e-007 2.55134e-006 -3.98657 -0.41218 -4.26112 56.2442 9.95805 -17.4066 -10.316 33.2832 30.0065 24.2053 37.1931 -29.8998 2.23467e-006 8.53651e-007 -3.17454e-007 -3.18055e-015 -1.59028e-015 -0 1.88941e-006 8.15706e-008 -2.15466e-007 2.23467e-006 8.53651e-007 -3.17454e-007 0.0149841 -9.03143e-005 -3.64445e-006 1.8704e-006 -1.79689e-007 -8.5652e-007 2.23467e-006 8.53651e-007 -3.17454e-007 0.0189683 -0.00118944 -5.76225e-005 1.88939e-006 8.15374e-008 -2.15499e-007 2.23467e-006 8.53651e-007 -3.17454e-007 0.012334 -0.00326519 -0.000685428 1.88939e-006 8.15629e-008 -2.15527e-007 2.23467e-006 8.53651e-007 -3.17454e-007 -3.18055e-015 -1.59028e-015 -0 1.88941e-006 8.15706e-008 -2.15466e-007 -154.841 -36.2925 -166.016 -16.0889 37.8726 13.9212 -9.03173 15.2241 0.942669 5.85342e-007 3.42804e-008 2.21516e-006 149.097 -47.4784 158.549 9.59539 12.849 -1.03642 6.65865 25.9467 -6.076 3.18055e-015 0 -3.18055e-015 
